<?xml version="1.0" encoding="UTF-8" standalone="no"?>
<svg
   width="800px"
   height="800px"
   viewBox="0 0 24 24"
   fill="none"
   version="1.1"
   id="svg1"
   sodipodi:docname="logo.svg"
   inkscape:version="1.4.2 (ebf0e94, 2025-05-08)"
   xmlns:inkscape="http://www.inkscape.org/namespaces/inkscape"
   xmlns:sodipodi="http://sodipodi.sourceforge.net/DTD/sodipodi-0.dtd"
   xmlns="http://www.w3.org/2000/svg"
   xmlns:svg="http://www.w3.org/2000/svg"
   xmlns:rdf="http://www.w3.org/1999/02/22-rdf-syntax-ns#"
   xmlns:cc="http://creativecommons.org/ns#"
   xmlns:dc="http://purl.org/dc/elements/1.1/">
  <title
     id="title1">evil-winrm-py</title>
  <defs
     id="defs1">
    <inkscape:path-effect
       effect="fillet_chamfer"
       id="path-effect12"
       is_visible="true"
       lpeversion="1"
       nodesatellites_param="F,0,0,1,0,0.9,0,1 @ F,0,0,1,0,0.9,0,1 @ F,0,0,1,0,0.9,0,1 @ F,0,0,1,0,0.9,0,1 @ F,0,0,1,0,0.9,0,1 @ F,0,0,1,0,0.6,0,1 | F,0,0,1,0,0.9,0,1 @ F,0,0,1,0,0.9,0,1 @ F,0,0,1,0,0.9,0,1 @ F,0,0,1,0,0.9,0,1 | F,0,0,1,0,0,0,1 @ F,0,0,1,0,0.9,0,1 @ F,0,1,1,0,2.4,0,1 @ F,0,0,1,0,0.9,0,1 @ F,0,0,1,0,0.9,0,1 @ F,0,1,1,0,2.4,0,1 @ F,0,0,1,0,0.9,0,1 @ F,0,0,1,0,0.9,0,1 @ F,0,1,1,0,2.4,0,1 @ F,0,0,1,0,0.9,0,1 @ F,0,0,1,0,0.9,0,1 @ F,0,1,1,0,2.4,0,1"
       radius="80"
       unit="px"
       method="auto"
       mode="F"
       chamfer_steps="1"
       flexible="false"
       use_knot_distance="true"
       apply_no_radius="true"
       apply_with_radius="true"
       only_selected="true"
       hide_knots="false" />
  </defs>
  <sodipodi:namedview
     id="namedview1"
     pagecolor="#ffffff"
     bordercolor="#000000"
     borderopacity="0.25"
     inkscape:showpageshadow="2"
     inkscape:pageopacity="0.0"
     inkscape:pagecheckerboard="0"
     inkscape:deskcolor="#d1d1d1"
     inkscape:zoom="0.35355339"
     inkscape:cx="509.11688"
     inkscape:cy="465.27626"
     inkscape:window-width="1920"
     inkscape:window-height="1008"
     inkscape:window-x="0"
     inkscape:window-y="0"
     inkscape:window-maximized="1"
     inkscape:current-layer="svg1"
     showguides="true" />
  <path
     fill-rule="evenodd"
     clip-rule="evenodd"
     d="m 7.5062866,17.920331 0.1412548,0.141242 a 0.90003872,0.90003872 179.99876 0 0 1.2728196,-2.7e-5 l 2.857239,-2.85724 a 0.89999903,0.89999903 89.999962 0 0 -10e-7,-1.272791 L 8.920426,11.074348 a 0.9000618,0.9000618 0.00189846 0 0 -1.2728359,-4.2e-5 l -0.1412318,0.141213 a 0.89973719,0.89973719 89.995499 0 0 1e-4,1.272606 l 1.6558027,1.655059 a 0.59984889,0.59984889 89.994348 0 1 8.37e-5,0.848421 l -1.6560682,1.655978 a 0.89993661,0.89993661 89.999546 0 0 1.01e-5,1.272748 z m 4.4938304,-0.01588 a 0.84834511,0.84834511 41.395603 0 0 0.9,0.793334 h 3.73034 a 0.9,0.9 135 0 0 0.9,-0.9 0.84834511,0.84834511 41.395603 0 0 -0.9,-0.793334 h -3.73034 a 0.9,0.9 135 0 0 -0.9,0.9 z M 22,11.125545 v 5.984776 a 33126.685,33126.685 90.001557 0 1 -4.9e-5,1.8 l -4.8e-5,0.877643 a 2.4001202,2.4001202 135.00168 0 1 -2.40013,2.39999 l -1.633973,-7e-6 a 422911.97,422911.97 1.2193129e-4 0 0 -1.8,-4e-6 H 7.8342 a 467457.61,467457.61 179.99989 0 0 -1.8,3e-6 l -1.6342748,7e-6 a 2.3999478,2.3999478 45.000403 0 1 -2.399957,-2.399991 l 1.57e-5,-0.877645 A 100531.56,100531.56 90.000513 0 0 2,17.110317 v -5.084755 a 167473.85,167473.85 89.999692 0 0 -9.7e-6,-1.8 l -9.4e-6,-0.8775422 A 2.4000135,2.4000135 134.99922 0 1 4.3999551,6.9479805 L 6.03418,6.9479537 c 0.4970563,-8.1e-6 1.3029518,-1.58e-5 1.8000181,-1.68e-5 1.7443855,-3.8e-6 5.6494769,-1.05e-5 8.3316199,-1.7e-6 0.497046,1.6e-6 1.302926,6.1e-6 1.799982,1.06e-5 0.516885,4.6e-6 1.08813,1.07e-5 1.634172,1.7e-5 1.325483,1.52e-5 2.400007,1.0745465 2.400016,2.4000299 z"
     fill="#323232"
     id="terminal"
     sodipodi:nodetypes="ccccccccccccccccccccccscc"
     style="stroke-width:0.920145;fill:#303030;fill-opacity:1"
     inkscape:path-effect="#path-effect12"
     inkscape:original-d="m 6.869863,17.283962 1.414102,1.41398 4.130031,-4.130032 -4.1299669,-4.129957 -1.4141098,1.413919 2.716701,2.715481 z m 5.130254,-0.279508 v 1.693334 h 5.53034 V 17.004454 Z M 22,11.125545 v 6.884776 l -2.27e-4,4.177643 -4.933973,-2.1e-5 H 6.9342 L 1.9999252,22.187962 2,18.010317 V 11.125562 L 1.9999551,6.9480198 6.93418,6.947939 c 0,0 6.754413,-1.84e-5 10.13162,0 1.644724,9e-6 4.934172,5.37e-5 4.934172,5.37e-5 z" />
  <path
     d="M 2.9257421,8.1851794 C 2.7095813,7.6645912 2.583353,7.2552962 2.57764,6.5303493 2.57345,5.9983442 2.64068,5.6052689 2.827101,5.0718681 3.041175,4.4593384 3.21875,4.1193765 3.6470023,3.5021513 4.1348653,2.799014 5.0692823,1.703577 5.1553033,1.7339385 c 0.01453,0.00513 0.0038,0.1397179 -0.02395,0.2990809 -0.09811,0.5642586 -0.105465,1.7515611 -0.01501,2.4231583 0.106446,0.7903054 0.445899,1.6616492 0.863238,2.2158617 0.127083,0.168753 0.2603551,0.3124647 0.340295,0.4964907 0.023253,0.05353 0.039517,0.112572 0.037994,0.1709142 -0.00327,0.1251261 -0.022662,0.2637858 -0.100502,0.3618071 C 5.7118835,8.3881621 4.8177861,8.853141 3.9473626,8.9615977 3.7366427,8.9878539 3.5030312,8.9266443 3.3303615,8.8030425 3.1301772,8.6597449 3.0201498,8.4125451 2.9257421,8.1851794 Z"
     style="mix-blend-mode:normal;fill:#e00000;fill-opacity:1;stroke:#ffffff;stroke-width:0.03;stroke-opacity:1"
     id="horn-left"
     sodipodi:nodetypes="acccccccaaaaaa" />
  <path
     d="M 21.06835,8.1861639 C 21.284511,7.6655757 21.410739,7.2562807 21.416452,6.5313338 21.420652,5.9993287 21.353412,5.6062534 21.166991,5.0728526 20.952917,4.4603229 20.775342,4.120361 20.34709,3.5031358 19.859227,2.7999985 18.92481,1.7045615 18.838789,1.734923 c -0.01453,0.00513 -0.0038,0.1397179 0.02395,0.2990809 0.09811,0.5642586 0.105465,1.7515611 0.01501,2.4231583 -0.106446,0.7903054 -0.445899,1.6616492 -0.863238,2.2158617 -0.127083,0.168753 -0.260355,0.3124647 -0.340295,0.4964907 -0.02325,0.05353 -0.03952,0.112572 -0.03799,0.1709142 0.0033,0.1251261 0.02266,0.2637858 0.100502,0.3618071 0.545481,0.6869107 1.439578,1.1518896 2.310002,1.2603463 0.21072,0.026256 0.444331,-0.034953 0.617001,-0.1585552 0.200184,-0.1432976 0.310212,-0.3904974 0.404619,-0.6178631 z"
     style="mix-blend-mode:normal;fill:#e00000;fill-opacity:1;stroke:#ffffff;stroke-width:0.03;stroke-opacity:1"
     id="horn-right"
     sodipodi:nodetypes="acccccccaaaaaa" />
  <metadata
     id="metadata1">
    <rdf:RDF>
      <cc:Work
         rdf:about="">
        <dc:title>evil-winrm-py</dc:title>
        <dc:creator>
          <cc:Agent>
            <dc:title>Aditya Telange</dc:title>
          </cc:Agent>
        </dc:creator>
        <dc:source>https://github.com/adityatelange/evil-winrm-py</dc:source>
      </cc:Work>
    </rdf:RDF>
  </metadata>
  <path
     style="fill:#e00000;stroke-width:0.353553;fill-opacity:1;stroke:#ffffff;stroke-opacity:1"
     d="m 270.15856,610.02998 c -6.40829,-1.43293 -10.66812,-3.9155 -16.59611,-9.67197 -4.81382,-4.67454 -6.83809,-7.22901 -8.7647,-11.06037 -2.32035,-4.61437 -2.96044,-7.4646 -2.96044,-13.1824 0,-4.07985 0.13973,-5.43388 0.79504,-7.70446 0.84534,-2.929 2.67045,-6.82608 4.42237,-9.44288 0.58583,-0.87505 14.53564,-15.11441 30.99956,-31.64303 27.17004,-27.27679 30.03793,-30.26426 31.05529,-32.35014 1.54947,-3.17688 2.19491,-5.98613 2.18999,-9.53183 -0.005,-3.49144 -0.57733,-5.93892 -2.14969,-9.19046 -1.02287,-2.11525 -3.67756,-4.88166 -30.88951,-32.18939 -16.37376,-16.4314 -30.35863,-30.69837 -31.07749,-31.70438 -1.63699,-2.29089 -3.87629,-7.05134 -4.62784,-9.83814 -0.31464,-1.16673 -0.66799,-3.87453 -0.78521,-6.01734 -0.34776,-6.35676 1.20038,-12.16486 4.69348,-17.60845 2.24121,-3.49267 10.47988,-11.63404 13.9331,-13.76855 4.88247,-3.01796 10.06669,-4.50174 15.72879,-4.50174 5.63254,0 11.46647,1.68374 16.08668,4.64281 1.69865,1.08792 15.28429,14.4386 52.08309,51.18236 53.53987,53.45976 52.4421,52.29175 54.76215,58.2666 2.68142,6.90553 2.7247,14.5888 0.12104,21.49162 -2.25476,5.97782 -0.36389,3.95725 -53.54193,57.21479 -27.14717,27.18776 -50.39263,50.21599 -51.65658,51.17386 -2.85235,2.16159 -6.43383,3.94961 -9.8995,4.94222 -3.5481,1.01622 -10.47996,1.26083 -13.92158,0.49127 z"
     id="prompt"
     transform="scale(0.03)" />
  <path
     style="fill:#e00000;stroke-width:0.353553;stroke:#ffffff;stroke-opacity:1"
     d="m 425.29345,622.90059 c -9.2748,-0.76945 -18.0337,-6.94239 -22.23822,-15.67266 -1.94766,-4.04412 -2.75532,-7.32288 -2.74337,-11.13693 0.036,-11.48329 7.64869,-22.48786 18.58625,-26.86748 5.61938,-2.2501 1.19524,-2.1239 74.45219,-2.1239 64.64601,0 66.82523,0.0213 69.39476,0.67849 10.04222,2.56836 17.66658,10.03243 20.5065,20.07539 1.90982,6.7538 0.17965,15.68044 -4.30163,22.19375 -4.37402,6.35742 -12.05059,11.29488 -19.52058,12.55537 -2.50884,0.42334 -129.23156,0.70484 -134.1359,0.29797 z"
     id="prompt-line"
     transform="scale(0.03)" />
</svg>
